<svg xmlns="http://www.w3.org/2000/svg" width="580" height="280" viewBox="0 0 580 280" role="img"><title>LoopForge: 执行、验证、修复，让迭代形成闭环。 Tauri / Rust / Go</title><g font-family="-apple-system,BlinkMacSystemFont,Segoe UI,Arial,PingFang SC,Microsoft YaHei,sans-serif"><rect x="1" y="1" width="578" height="278" rx="18" fill="#f8f9fc" stroke="#e0e4ed"/>
<path d="M25 1H555" stroke="#b79aff" stroke-width="2"/>
<text x="28" y="40" fill="#596478" font-size="11" letter-spacing="2">01 / AUTOMATION &amp; DESKTOP</text>
<circle cx="516" cy="104" r="42" fill="#b79aff" opacity=".09"/>
<g fill="none" stroke="#b79aff" stroke-width="2"><path d="M493 102a23 23 0 0 1 39-15M532 87v-11m0 11h-11M539 106a23 23 0 0 1-39 16M500 122v11m0-11h11"/></g><text x="28" y="109" font-size="34" font-weight="700" letter-spacing="-1" fill="#1a2030">LoopForge</text>
<text x="28" y="151" font-size="17" fill="#596478">执行、验证、修复，让迭代形成闭环。</text>
<text x="28" y="193" font-size="13" fill="#596478">Tauri / Rust / Go</text>
<path d="M28 218H552" stroke="#e0e4ed"/>
<text x="28" y="250" fill="#596478" font-size="11" letter-spacing="2">EXPLORE REPOSITORY</text>
<path d="M528 249l15-15m-15 0h15v15" stroke="#596478" stroke-width="1.5" fill="none"/></g></svg>